<?xml version="1.0" encoding="UTF-8"?>
<svg width="24px" height="24px" viewBox="0 0 24 24" version="1.1" xmlns="http://www.w3.org/2000/svg" xmlns:xlink="http://www.w3.org/1999/xlink">
    <!-- Generator: Sketch 42 (36781) - http://www.bohemiancoding.com/sketch -->
    <title>ic_white_tc_logo@1x</title>
    <desc>Created with Sketch.</desc>
    <defs></defs>
    <g id="Assets" stroke="none" stroke-width="1" fill="none" fill-rule="evenodd">
        <g id="ic_white_tc_logo" fill="#FFFFFF">
            <path d="M12,24 C5.372583,24 0,18.627417 0,12 C0,5.372583 5.372583,0 12,0 C18.627417,0 24,5.372583 24,12 C24,18.627417 18.627417,24 12,24 Z M8.55941827,11.7903904 C9.0148831,12.5771651 9.5424773,13.2847453 10.1191685,13.9029603 L8.48981141,15.5320478 C9.24685868,16.250851 10.1137951,16.9035123 11.079554,17.4623675 C12.9177213,18.526059 14.8584935,19.1738294 16.736872,19.3678021 C16.736872,19.3678021 17.7702769,19.4828326 18.3459878,18.7644015 C18.9216987,18.0459704 19.1035156,17.6179262 19.1035156,17.6179262 C19.1035156,17.6179262 19.8557886,16.5169072 18.8538334,15.9371062 C17.7088582,15.2745439 16.4638626,13.9526056 15.1792594,14.7520775 C14.0809978,15.4355798 13.3623319,15.8506335 13.1769453,15.9566648 C12.8590076,15.8087778 12.5430849,15.6445458 12.2307392,15.4638009 C11.4438143,15.0084314 10.7360972,14.4809443 10.1177607,13.9043678 L8.49121917,15.5306402 C7.77227323,14.773742 7.11947955,13.9069734 6.56050731,12.9413989 C5.49659314,11.1035823 4.74662444,9.13119455 4.65465943,7.28513633 C4.65465943,7.28513633 4.53956775,6.25192293 5.25812002,5.67630498 C5.97667228,5.10068702 6.40479122,4.91889631 6.40479122,4.91889631 C6.40479122,4.91889631 7.50599806,4.16674206 8.08592045,5.16850612 C8.74862143,6.31326277 10.0708198,7.55801112 9.27122345,8.84239398 C8.58761474,9.94046724 8.17249724,10.6590093 8.06644958,10.844364 C8.21436859,11.1622416 8.37863553,11.4781044 8.55941827,11.7903904 Z" id="Combined-Shape"></path>
        </g>
    </g>
</svg>