<svg xmlns="http://www.w3.org/2000/svg" width="24" height="24"><path fill="#FFF" fill-rule="evenodd" d="M3 0C1.35 0 0 1.35 0 3v18c0 1.65 1.35 3 3 3h18c1.65 0 3-1.35 3-3V3c0-1.65-1.35-3-3-3H3zm1.47 10.65h-.42c-.18 0-.24-.03-.24-.24 0-.24 0-.33.21-.36h.45v-.48c0-.21.03-.27.15-.42l.45-.39c.12-.09.18-.15.24-.15.18 0 .18.27.18.36v1.08h.75c.15 0 .27.03.27.24 0 .24 0 .36-.24.36h-.78v3.09c.03.39.03.48.12.63.09.21.27.3.51.3h.24c.21 0 .3.15.3.27 0 .42-.84.42-.87.42-.45 0-.84-.18-1.08-.48-.24-.36-.24-.72-.24-.99v-3.24zm5.04.15c-.12-.09-.21-.21-.48-.21-.42 0-.48.27-.48.6V15c-.03.24-.15.27-.27.27h-.51c-.12 0-.27 0-.27-.27v-4.08c0-.33.03-.51.3-.66.27-.15.9-.33 1.56-.33.96 0 1.11.39 1.11.66s-.21.51-.48.51c-.24 0-.33-.12-.48-.3zm7.38 1.77c.12 1.32.81 1.8 1.41 1.8.51 0 .93-.27 1.26-.81.12-.21.18-.3.36-.3.15 0 .27.09.27.3 0 .24-.39 1.8-2.01 1.8-.39 0-1.38-.12-1.89-1.17-.21-.42-.33-.93-.33-1.53 0-.66.12-1.2.36-1.62.15-.33.69-1.11 1.86-1.11 1.62 0 1.95 1.44 1.95 1.8 0 .36-.24.39-.36.42l-2.88.42zm-5.7-2.28c0-.12.03-.24.27-.24h.48c.15 0 .3 0 .3.27v3.21c0 .48.03 1.08.99 1.08.9 0 .9-.51.9-.96v-3.33c0-.06 0-.24.18-.27h.57c.21 0 .3.06.3.27v3.63c0 .48-.03.81-.45 1.05-.21.12-.75.36-1.65.36-.81 0-1.17-.21-1.41-.39-.42-.36-.48-.81-.48-1.23v-3.45zm7.83 1.29c-.09-.54-.48-.93-.96-.93-.78 0-1.08.66-1.17 1.26l2.13-.33z"/></svg>